<svg width="67" height="81" viewBox="0 0 67 81" fill="none" xmlns="http://www.w3.org/2000/svg">
<path d="M0.72 79.76C0.973333 79.68 1.26 79.6067 1.58 79.54C1.9 79.4733 2.15333 79.4267 2.34 79.4V66.62C1.76667 66.5267 1.24 66.4 0.76 66.24V66H6.72C8.44 66 9.67333 66.36 10.42 67.08C11.18 67.7867 11.56 68.8133 11.56 70.16C11.56 71.44 11.1933 72.48 10.46 73.28C9.74 74.0667 8.66 74.46 7.22 74.46H4.2V79.4C4.76 79.48 5.3 79.6067 5.82 79.78V80H0.72V79.76ZM6.82 73.76C7.80667 73.76 8.54 73.4267 9.02 72.76C9.5 72.0933 9.74 71.22 9.74 70.14C9.74 69.0733 9.5 68.24 9.02 67.64C8.54 67.04 7.80667 66.74 6.82 66.74H4.2V73.76H6.82ZM22.2475 75.04H14.5475C14.5608 76.3467 14.8942 77.42 15.5475 78.26C16.2142 79.1 17.1742 79.52 18.4275 79.52C18.9608 79.52 19.5142 79.4333 20.0875 79.26C20.6742 79.0733 21.1808 78.8333 21.6075 78.54L21.7875 79.06C21.4008 79.38 20.8675 79.6533 20.1875 79.88C19.5208 80.0933 18.7875 80.2 17.9875 80.2C16.9342 80.2 16.0075 79.9867 15.2075 79.56C14.4208 79.12 13.8075 78.5133 13.3675 77.74C12.9408 76.9533 12.7275 76.0533 12.7275 75.04C12.7275 73.4 13.1742 72.1267 14.0675 71.22C14.9742 70.3133 16.2142 69.86 17.7875 69.86C18.7875 69.86 19.6208 70.0733 20.2875 70.5C20.9542 70.9267 21.4475 71.5 21.7675 72.22C22.0875 72.9267 22.2475 73.7133 22.2475 74.58V75.04ZM20.6475 74.34C20.6475 73.74 20.5542 73.1533 20.3675 72.58C20.1808 72.0067 19.8742 71.5333 19.4475 71.16C19.0342 70.7733 18.4942 70.58 17.8275 70.58C16.8275 70.58 16.0542 70.9333 15.5075 71.64C14.9742 72.3467 14.6608 73.2467 14.5675 74.34H20.6475ZM34.0711 79.4C34.6978 79.4933 35.2311 79.62 35.6711 79.78V80H30.7511V79.78C31.3244 79.5933 31.8311 79.4667 32.2711 79.4V72.84C32.2711 72.04 32.0778 71.4667 31.6911 71.12C31.3044 70.76 30.7911 70.58 30.1511 70.58C29.6178 70.58 29.0578 70.72 28.4711 71C27.8844 71.2667 27.3578 71.6533 26.8911 72.16V79.4C27.4244 79.48 27.9578 79.6067 28.4911 79.78V80H23.4911V79.78C24.0244 79.6067 24.5578 79.48 25.0911 79.4V70.72C24.5311 70.6133 24.0644 70.4933 23.6911 70.36V70.22L26.8911 69.88V71.4C27.3578 70.9467 27.9244 70.58 28.5911 70.3C29.2711 70.0067 29.9978 69.86 30.7711 69.86C31.7578 69.86 32.5511 70.1133 33.1511 70.62C33.7644 71.1267 34.0711 71.8133 34.0711 72.68V79.4ZM44.1691 68.98C43.8357 68.98 43.5624 68.88 43.3491 68.68C43.1491 68.48 43.0491 68.22 43.0491 67.9C43.0491 67.58 43.1491 67.32 43.3491 67.12C43.5624 66.9067 43.8357 66.8 44.1691 66.8C44.5024 66.8 44.7691 66.9067 44.9691 67.12C45.1824 67.32 45.2891 67.58 45.2891 67.9C45.2891 68.22 45.1824 68.48 44.9691 68.68C44.7691 68.88 44.5024 68.98 44.1691 68.98ZM41.8091 79.78C42.0624 79.6867 42.3691 79.6067 42.7291 79.54C43.0891 79.46 43.3157 79.4133 43.4091 79.4V70.74C42.8757 70.6467 42.4091 70.5333 42.0091 70.4V70.24L45.2091 69.92V79.4C45.8224 79.5067 46.3557 79.6333 46.8091 79.78V80H41.8091V79.78ZM54.4638 79.9C53.8638 80.1 53.1838 80.2 52.4238 80.2C51.4771 80.2 50.7371 79.96 50.2038 79.48C49.6704 79 49.4038 78.26 49.4038 77.26V70.76H47.6638V70.04H49.4038V68.94C49.9104 68.7267 50.2238 68.1933 50.3438 67.34H51.2038V70.04H54.2038V70.76H51.2038V77.26C51.2038 78.06 51.3571 78.6267 51.6638 78.96C51.9838 79.2933 52.4371 79.46 53.0238 79.46C53.4104 79.46 53.8438 79.38 54.3238 79.22L54.4638 79.9Z" fill="#23313E"/>
<path d="M53.0369 40.0116C53.6964 40.0116 54.2311 39.4759 54.2311 38.8151C54.2311 38.1535 53.6964 37.6172 53.0369 37.6172H47.9726C47.3131 37.6172 46.7783 38.1535 46.7783 38.8151C46.7783 39.4759 47.3131 40.0116 47.9726 40.0116H53.0369Z" fill="#F2F2F2"/>
<path d="M53.7944 42.7874V48.0345H52.4615V41.2969H48.476C48.4615 41.371 48.4535 41.4485 48.4535 41.5266V42.8351C46.0742 43.09 44.6396 44.2118 44.6396 45.8897V48.7543C44.6396 49.4145 45.1737 49.9508 45.8333 49.9508H48.1406H48.6219H52.3288H55.0646H55.1181C55.7776 49.9508 56.3124 49.4145 56.3124 48.7543V45.1527C56.3117 44.3992 55.9347 43.2457 53.7944 42.7874Z" fill="#F2F2F2"/>
<path d="M17.3832 37.6881H24.4974L23.6847 35.293H16.5527L17.3832 37.6881Z" fill="#F2F2F2"/>
<path d="M25.8177 30.5977H14.9365L15.767 32.9927H26.6304L25.8177 30.5977Z" fill="#F2F2F2"/>
<path d="M62.6888 0.635668C62.6855 0.413177 62.5686 0.208565 62.3785 0.0940085C62.1904 -0.0225344 61.9553 -0.0304806 61.7586 0.0688457C61.3915 0.252931 53.7836 4.20281 40.0702 19.9388C39.5652 20.5009 39.0515 21.079 38.526 21.677C31.9189 29.1973 26.9286 35.7032 26.8797 35.7687C26.4783 36.2932 26.5767 37.0447 27.0996 37.4473C27.1735 37.5043 27.2527 37.5513 27.3346 37.5877C27.8284 37.8129 28.4285 37.6765 28.7731 37.2268C28.8048 37.1851 30.8435 34.5271 34.0262 30.664L41.3496 30.9249C42.0078 30.9487 42.5617 30.4316 42.5855 29.7714C42.6086 29.1105 42.093 28.5556 41.4341 28.5325L35.9606 28.3365C36.3184 27.9107 36.6861 27.475 37.0624 27.0313L45.452 27.2757C45.7531 27.0035 46.0568 26.6929 46.3604 26.3367C50.8233 21.1121 54.6794 16.2114 57.2357 12.9621C62.7027 6.01121 62.6921 0.851537 62.6888 0.635668Z" fill="#F2F2F2"/>
<path d="M41.2743 43.2477H35.4918C35.2185 42.4889 33.9641 39.0065 32.7157 35.5347C31.9644 36.4743 31.3736 37.2259 30.9709 37.7404C31.7769 39.9825 32.5295 42.073 32.9534 43.2477H22.3231C21.6636 43.2477 21.1295 43.7848 21.1295 44.4456C21.1295 44.4886 21.1315 44.5317 21.1368 44.5734C21.1321 44.6151 21.1295 44.6588 21.1295 44.7025C21.1295 44.9873 21.0655 47.4837 18.8558 47.4837C18.1626 47.4837 17.8438 46.8884 17.109 44.8422C16.9783 44.4588 11.6294 28.7355 11.2175 27.486L11.2056 27.4502C11.1039 27.141 10.9488 26.6735 10.6979 26.1749C15.6011 26.1643 24.3433 26.1464 25.0635 26.1451C25.9125 26.1464 26.8757 26.1418 27.6851 28.56C27.7492 28.7514 28.0165 29.5056 28.4021 30.5817C28.9335 29.9215 29.5237 29.1951 30.1635 28.4144C30.0532 28.1018 29.9766 27.8853 29.9476 27.7979C28.7487 24.2175 26.7173 23.75 25.0767 23.75C25.0708 23.75 25.0642 23.75 25.0582 23.75C24.0528 23.7526 7.41021 23.7877 7.41021 23.7877V23.8043C7.29204 23.7944 7.17122 23.7877 7.04513 23.7877C6.06476 23.7877 5.19661 24.1612 4.53445 24.8711C2.81071 26.7165 2.9916 30.3287 3.01801 30.7346C3.05894 31.3643 3.57982 31.8537 4.20898 31.8537L10.1711 31.851C11.8618 36.8339 14.6894 45.1455 14.8518 45.6243C14.8525 45.6263 14.8538 45.6289 14.8544 45.6316C14.8558 45.6355 14.8571 45.6388 14.8577 45.6428C15.5701 47.6287 16.3768 49.8787 18.8538 49.8787C18.9449 49.8787 19.0327 49.8741 19.1206 49.8701C19.1641 49.8754 19.2084 49.8787 19.2526 49.8787H37.8051C39.7058 49.8787 41.1727 48.9166 41.9326 47.1705C42.4515 45.9805 42.466 44.829 42.466 44.7019C42.466 44.6582 42.4633 44.6145 42.4594 44.5727C42.4633 44.531 42.466 44.488 42.466 44.4449C42.4673 43.7848 41.9325 43.2477 41.2743 43.2477ZM5.40985 29.4593C5.47653 28.4124 5.71024 27.1158 6.27733 26.5093C6.49057 26.2802 6.72098 26.1828 7.04645 26.1828C8.0836 26.1828 8.49753 26.8629 8.93986 28.2031L8.95174 28.2395C9.00786 28.4104 9.1531 28.8408 9.36171 29.4586L5.40985 29.4593ZM39.7467 46.2123C39.3638 47.0917 38.7656 47.4843 37.8071 47.4843H22.8453C23.1576 46.8765 23.3444 46.2295 23.4382 45.6435H39.9401C39.8932 45.8256 39.8312 46.0203 39.7467 46.2123Z" fill="#F2F2F2"/>
</svg>
