<svg width="40" height="40" viewBox="0 0 40 40" fill="none" xmlns="http://www.w3.org/2000/svg">
<path d="M0 20.0001C0 8.95443 8.95425 0 20.0001 0C31.0457 0 40.0002 8.95425 40 20.0001C40 31.0457 31.0457 40.0002 20.0001 40C8.95443 40 0 31.0457 0 20.0001ZM20.0001 38.1559C30.0274 38.1559 38.1561 30.0272 38.1559 20.0001C38.1559 9.97275 30.0272 1.84408 20.0001 1.84408C9.97275 1.84408 1.84408 9.97275 1.84408 20.0001C1.84408 30.0274 9.97275 38.1561 20.0001 38.1559Z" fill="#F2F2F2"/>
<path d="M29.2687 27.9297V30.233H28.6836V27.2754H26.9341C26.9277 27.3079 26.9242 27.342 26.9242 27.3763V27.9506C25.8797 28.0625 25.25 28.555 25.25 29.2915V30.549C25.25 30.8388 25.4845 31.0742 25.774 31.0742H26.7868H26.9981H28.6253H29.8263H29.8498C30.1393 31.0742 30.374 30.8388 30.374 30.549V28.968C30.3737 28.6372 30.2083 28.1309 29.2687 27.9297Z" fill="#F2F2F2"/>
<path d="M33.1675 9.46264C33.166 9.36497 33.1148 9.27515 33.0313 9.22486C32.9487 9.1737 32.8455 9.17021 32.7592 9.21382C32.598 9.29462 29.2583 11.0285 23.2385 17.9362C23.0168 18.183 22.7913 18.4367 22.5607 18.6992C19.6603 22.0005 17.4697 24.8564 17.4482 24.8851C17.272 25.1154 17.3152 25.4453 17.5447 25.622C17.5772 25.647 17.612 25.6676 17.6479 25.6836C17.8647 25.7825 18.1281 25.7226 18.2794 25.5252C18.2933 25.5069 19.1882 24.3401 20.5854 22.6443L23.8002 22.7588C24.0891 22.7693 24.3322 22.5423 24.3427 22.2525C24.3528 21.9624 24.1265 21.7188 23.8372 21.7086L21.4345 21.6226C21.5916 21.4357 21.753 21.2444 21.9182 21.0496L25.601 21.1569C25.7331 21.0374 25.8665 20.9011 25.9998 20.7447C27.9588 18.4513 29.6516 16.3 30.7737 14.8736C33.1736 11.8224 33.1689 9.5574 33.1675 9.46264Z" fill="#F2F2F2"/>
<path d="M23.7741 28.1469H21.2357C21.1157 27.8138 20.5651 26.2851 20.0171 24.7611C19.6873 25.1735 19.4279 25.5035 19.2511 25.7293C19.605 26.7136 19.9354 27.6312 20.1214 28.1469H15.455C15.1655 28.1469 14.931 28.3826 14.931 28.6727C14.931 28.6916 14.9319 28.7105 14.9342 28.7288C14.9322 28.7471 14.931 28.7663 14.931 28.7855C14.931 28.9105 14.9029 30.0064 13.933 30.0064C13.6287 30.0064 13.4887 29.745 13.1661 28.8468C13.1087 28.6785 10.7608 21.7764 10.5799 21.2279L10.5747 21.2122C10.5301 21.0765 10.462 20.8712 10.3518 20.6524C12.5042 20.6477 16.3418 20.6399 16.658 20.6393C17.0307 20.6399 17.4535 20.6378 17.8088 21.6994C17.8369 21.7834 17.9543 22.1145 18.1235 22.5868C18.3568 22.297 18.6159 21.9781 18.8967 21.6354C18.8483 21.4982 18.8147 21.4032 18.8019 21.3648C18.2757 19.7931 17.3839 19.5879 16.6638 19.5879C16.6612 19.5879 16.6583 19.5879 16.6557 19.5879C16.2143 19.5891 8.90862 19.6045 8.90862 19.6045V19.6117C8.85675 19.6074 8.80372 19.6045 8.74836 19.6045C8.318 19.6045 7.93691 19.7684 7.64624 20.08C6.88956 20.8901 6.96897 22.4758 6.98056 22.654C6.99853 22.9304 7.22718 23.1452 7.50337 23.1452L10.1206 23.144C10.8628 25.3314 12.104 28.98 12.1753 29.1901C12.1756 29.191 12.1762 29.1922 12.1765 29.1933C12.177 29.1951 12.1776 29.1965 12.1779 29.1983C12.4906 30.07 12.8447 31.0577 13.9321 31.0577C13.9721 31.0577 14.0106 31.0557 14.0492 31.054C14.0683 31.0563 14.0877 31.0577 14.1071 31.0577H22.2512C23.0855 31.0577 23.7295 30.6354 24.063 29.8689C24.2908 29.3465 24.2972 28.841 24.2972 28.7852C24.2972 28.766 24.296 28.7468 24.2943 28.7285C24.296 28.7102 24.2972 28.6913 24.2972 28.6724C24.2978 28.3826 24.063 28.1469 23.7741 28.1469ZM8.03052 22.0941C8.05979 21.6346 8.16238 21.0654 8.41132 20.7991C8.50493 20.6986 8.60607 20.6558 8.74894 20.6558C9.20422 20.6558 9.38593 20.9544 9.5801 21.5427L9.58532 21.5587C9.60995 21.6337 9.67371 21.8226 9.76528 22.0938L8.03052 22.0941ZM23.1035 29.4483C22.9354 29.8343 22.6729 30.0066 22.2521 30.0066H15.6842C15.8213 29.7398 15.9033 29.4558 15.9445 29.1986H23.1884C23.1678 29.2785 23.1406 29.364 23.1035 29.4483Z" fill="#F2F2F2"/>
</svg>
