<svg width="24" height="24" viewBox="0 0 24 24" fill="none" xmlns="http://www.w3.org/2000/svg">
<path d="M21.5 20.725V4.5H2.5V12.5H1V4.5C1 4.08333 1.14688 3.72917 1.44063 3.4375C1.73438 3.14583 2.0875 3 2.5 3H21.5C21.9125 3 22.2656 3.14688 22.5594 3.44063C22.8531 3.73438 23 4.0875 23 4.5V19C23 19.4333 22.8583 19.8125 22.575 20.1375C22.2917 20.4625 21.9333 20.6583 21.5 20.725ZM9 13.975C7.9 13.975 7 13.625 6.3 12.925C5.6 12.225 5.25 11.325 5.25 10.225C5.25 9.125 5.6 8.225 6.3 7.525C7 6.825 7.9 6.475 9 6.475C10.1 6.475 11 6.825 11.7 7.525C12.4 8.225 12.75 9.125 12.75 10.225C12.75 11.325 12.4 12.225 11.7 12.925C11 13.625 10.1 13.975 9 13.975ZM9 12.475C9.65 12.475 10.1875 12.2625 10.6125 11.8375C11.0375 11.4125 11.25 10.875 11.25 10.225C11.25 9.575 11.0375 9.0375 10.6125 8.6125C10.1875 8.1875 9.65 7.975 9 7.975C8.35 7.975 7.8125 8.1875 7.3875 8.6125C6.9625 9.0375 6.75 9.575 6.75 10.225C6.75 10.875 6.9625 11.4125 7.3875 11.8375C7.8125 12.2625 8.35 12.475 9 12.475ZM1 22V19.65C1 19.0167 1.15833 18.475 1.475 18.025C1.79167 17.575 2.2 17.2333 2.7 17C3.81667 16.5 4.8875 16.125 5.9125 15.875C6.9375 15.625 7.96667 15.5 9 15.5C10.0333 15.5 11.0583 15.6292 12.075 15.8875C13.0917 16.1458 14.1577 16.5183 15.273 17.0048C15.7947 17.2403 16.213 17.5817 16.5278 18.029C16.8426 18.4763 17 19.0167 17 19.65V22H1ZM2.5 20.5H15.5V19.65C15.5 19.3833 15.4208 19.1292 15.2625 18.8875C15.1042 18.6458 14.9083 18.4667 14.675 18.35C13.6083 17.8333 12.6333 17.4792 11.75 17.2875C10.8667 17.0958 9.95 17 9 17C8.05 17 7.125 17.0958 6.225 17.2875C5.325 17.4792 4.35 17.8333 3.3 18.35C3.06667 18.4667 2.875 18.6458 2.725 18.8875C2.575 19.1292 2.5 19.3833 2.5 19.65V20.5Z" fill="#F2F2F2"/>
</svg>
