<svg width="24" height="24" viewBox="0 0 24 24" fill="none" xmlns="http://www.w3.org/2000/svg">
<path d="M12 6.48L13.164 9.37263L13.728 10.7747L15.168 10.9011L18.132 11.1663L15.876 13.2253L14.784 14.2232L15.108 15.7137L15.78 18.7579L13.236 17.1411L12 16.3326L10.764 17.1158L8.22 18.7326L8.892 15.6884L9.216 14.1979L8.124 13.2L5.868 11.1411L8.832 10.8758L10.272 10.7495L10.836 9.34737L12 6.48ZM12 0L8.628 8.37474L0 9.14526L6.552 15.12L4.584 24L12 19.2884L19.416 24L17.448 15.12L24 9.14526L15.372 8.37474L12 0Z" fill="#F2F2F2"/>
</svg>
