<svg width="300" height="120" viewBox="0 0 300 120" fill="none" xmlns="http://www.w3.org/2000/svg">
<g clip-path="url(#clip0_63_222)">
<g clip-path="url(#clip1_63_222)">
<g clip-path="url(#clip2_63_222)">
<g clip-path="url(#clip3_63_222)">
<g clip-path="url(#clip4_63_222)">
<g clip-path="url(#clip5_63_222)">
<path d="M120.462 42.9633H118.634V41.1841H125.857C128.555 41.1841 130.719 42.0295 132.349 43.7202C133.976 45.4153 134.789 48.1715 134.789 51.9886C134.789 55.7627 134.22 58.5878 133.081 60.4641C132.082 62.1031 130.523 63.1382 128.405 63.5696C127.466 63.7421 126.367 63.8283 125.108 63.8283H118.634V62.0492H120.462V42.9633ZM125.708 42.9633H122.5V62.0492H124.958C127.616 62.0492 129.444 61.5208 130.443 60.4641C131.502 59.3642 132.182 57.8761 132.481 55.9999C132.661 54.9 132.751 53.6169 132.751 52.1504C132.751 48.9155 132.098 46.5756 130.791 45.1307C129.48 43.6857 127.786 42.9633 125.708 42.9633ZM146.269 42.9309C144.011 42.9309 142.222 43.8367 140.903 45.6482C139.585 47.4598 138.925 50.0693 138.925 53.4767C138.925 54.9432 139.065 56.2263 139.345 57.3262C139.625 58.4261 139.968 59.2779 140.376 59.8818C140.788 60.4856 141.293 60.9601 141.893 61.3051C142.852 61.8874 143.971 62.1786 145.249 62.1786C147.228 62.1786 149.206 61.9413 151.184 61.4669L151.544 63.149C151.204 63.2784 150.299 63.4445 148.828 63.6472C147.362 63.8542 146.169 63.9577 145.249 63.9577C144.33 63.9577 143.531 63.8866 142.852 63.7442C142.172 63.6062 141.453 63.3108 140.694 62.8579C139.934 62.405 139.289 61.8055 138.757 61.0593C138.23 60.3174 137.786 59.2995 137.427 58.0055C137.067 56.7116 136.887 55.202 136.887 53.4767C136.887 49.6595 137.696 46.6834 139.315 44.5484C141.013 42.3055 143.331 41.1841 146.269 41.1841C147.168 41.1841 148.141 41.2747 149.188 41.4558C150.239 41.6413 150.984 41.8203 151.424 41.9928L151.783 46.6511L150.315 46.8775L149.895 43.3838C148.616 43.0819 147.407 42.9309 146.269 42.9309ZM164.042 42.9633H162.424V41.1841H168.238V42.9633H166.32L160.236 51.8269L167.693 62.0492H169.977V63.8283H169.018L166.71 63.8607L158.018 51.9886L164.042 42.9633ZM160.086 42.9633H158.018V62.0492H160.086V63.8283H154.031V62.0492H155.98V42.9633H154.031V41.1841H160.086V42.9633ZM191.101 63.8283H185.047V62.0492H186.875L185.496 57.8438H176.265L174.916 62.0492H177.074V63.8283H171.02V62.0492H172.998L179.981 41.1841H181.81L189.033 62.0492H191.101V63.8283ZM184.957 56.2263L180.791 43.6426L176.774 56.2263H184.957ZM194.728 42.9633H192.84V41.1841H199.074C201.532 41.1841 203.356 41.637 204.547 42.5427C205.734 43.4485 206.327 45.1565 206.327 47.6668C206.327 50.1814 205.714 52.0361 204.487 53.2308C203.256 54.4299 201.452 55.0294 199.074 55.0294H196.766V62.0492H198.894V63.8283H192.84V62.0492H194.728V42.9633ZM198.924 42.9633H196.766V53.2502H198.924C200.722 53.2502 202.067 52.8254 202.958 51.9757C203.845 51.1217 204.289 49.7285 204.289 47.7962C204.289 45.8682 203.849 44.5807 202.97 43.9337C202.091 43.2868 200.742 42.9633 198.924 42.9633ZM219.935 42.9633H218.046V41.1841H224.281C226.738 41.1841 228.561 41.637 229.747 42.5427C230.938 43.4485 231.534 45.1565 231.534 47.6668C231.534 50.1814 230.918 52.0361 229.688 53.2308C228.461 54.4299 226.658 55.0294 224.281 55.0294H221.973V62.0492H224.101V63.8283H218.046V62.0492H219.935V42.9633ZM224.131 42.9633H221.973V53.2502H224.131C225.929 53.2502 227.272 52.8254 228.159 51.9757C229.05 51.1217 229.496 49.7285 229.496 47.7962C229.496 45.8682 229.056 44.5807 228.177 43.9337C227.298 43.2868 225.949 42.9633 224.131 42.9633ZM252.119 63.8283H246.064V62.0492H247.893L246.514 57.8438H237.283L235.934 62.0492H238.092V63.8283H232.037V62.0492H234.016L240.999 41.1841H242.827L250.051 62.0492H252.119V63.8283ZM245.975 56.2263L241.808 43.6426L237.792 56.2263H245.975ZM255.656 42.9633H253.797V41.1841H259.852V42.9633H257.694V62.0492H265.307L265.756 58.0055L267.225 58.1673L266.895 62.0492H266.925L266.895 62.1139L266.775 63.8283L266.476 63.796V63.8283H253.797V62.0492H255.656V42.9633ZM270.941 42.9633H269.083V41.1841H275.138V42.9633H272.98V62.0492H280.593L281.042 58.0055L282.511 58.1673L282.181 62.0492H282.211L282.181 62.1139L282.061 63.8283L281.762 63.796V63.8283H269.083V62.0492H270.941V42.9633ZM286.347 42.9633H284.369V41.1841H290.423V42.9633H288.385V62.0492H290.423V63.8283H284.369V62.0492H286.347V42.9633Z" fill="#23313E"/>
</g>
</g>
<g clip-path="url(#clip6_63_222)">
<g clip-path="url(#clip7_63_222)">
<path d="M118.63 83.4081V81.8133C119.299 81.7721 119.847 81.5243 120.274 81.0702C120.698 80.616 120.911 79.9089 120.911 78.949V69.8604H122.489V78.9954C122.489 79.687 122.393 80.3012 122.202 80.8379C122.011 81.3747 121.743 81.8319 121.399 82.2097C121.054 82.5854 120.646 82.8745 120.173 83.0768C119.699 83.277 119.185 83.3875 118.63 83.4081ZM124.268 75.4808C124.268 74.7066 124.406 73.9707 124.684 73.2729C124.961 72.5772 125.341 71.9661 125.823 71.4397C126.307 70.9133 126.869 70.4973 127.51 70.1917C128.151 69.8883 128.839 69.7365 129.576 69.7365C130.302 69.7365 130.988 69.8883 131.633 70.1917C132.279 70.4973 132.843 70.9133 133.325 71.4397C133.809 71.9661 134.192 72.5772 134.473 73.2729C134.756 73.9707 134.898 74.7066 134.898 75.4808C134.898 76.2756 134.756 77.0188 134.473 77.7103C134.192 78.4019 133.809 79.0078 133.325 79.528C132.843 80.0503 132.279 80.4612 131.633 80.7605C130.988 81.0598 130.302 81.2095 129.576 81.2095C128.839 81.2095 128.151 81.0598 127.51 80.7605C126.869 80.4612 126.307 80.0503 125.823 79.528C125.341 79.0078 124.961 78.4019 124.684 77.7103C124.406 77.0188 124.268 76.2756 124.268 75.4808ZM125.831 75.4963C125.831 76.064 125.929 76.5976 126.124 77.0972C126.321 77.5989 126.592 78.0355 126.936 78.4071C127.28 78.7787 127.682 79.0728 128.141 79.2896C128.6 79.5064 129.088 79.6148 129.604 79.6148C130.121 79.6148 130.606 79.5064 131.059 79.2896C131.514 79.0728 131.911 78.7787 132.25 78.4071C132.59 78.0355 132.858 77.5989 133.053 77.0972C133.25 76.5976 133.348 76.0588 133.348 75.4808C133.348 74.9131 133.25 74.3784 133.053 73.8767C132.858 73.3771 132.588 72.9415 132.244 72.5699C131.899 72.1984 131.5 71.9042 131.045 71.6874C130.591 71.4706 130.106 71.3623 129.59 71.3623C129.073 71.3623 128.586 71.4706 128.127 71.6874C127.668 71.9042 127.268 72.1984 126.927 72.5699C126.589 72.9415 126.321 73.3802 126.124 73.886C125.929 74.3918 125.831 74.9285 125.831 75.4963ZM140.564 81.2095C140.01 81.2095 139.493 81.1114 139.015 80.9153C138.537 80.7192 138.118 80.4426 137.758 80.0854C137.401 79.7304 137.118 79.302 136.912 78.8003C136.707 78.3008 136.605 77.7413 136.605 77.122V69.8604H138.183V77.0755C138.183 77.4368 138.242 77.7692 138.361 78.0726C138.481 78.3782 138.649 78.6465 138.863 78.8778C139.079 79.111 139.331 79.2917 139.617 79.4197C139.904 79.5497 140.22 79.6148 140.564 79.6148C140.899 79.6148 141.212 79.5497 141.502 79.4197C141.795 79.2917 142.049 79.111 142.263 78.8778C142.479 78.6465 142.649 78.3782 142.773 78.0726C142.898 77.7692 142.96 77.4368 142.96 77.0755V69.8604H144.538V77.122C144.538 77.7413 144.435 78.3008 144.228 78.8003C144.023 79.302 143.741 79.7304 143.382 80.0854C143.024 80.4426 142.603 80.7192 142.119 80.9153C141.637 81.1114 141.119 81.2095 140.564 81.2095ZM148.552 81.0856H146.974V69.8604H149.814C150.359 69.8604 150.86 69.9378 151.315 70.0927C151.768 70.2475 152.16 70.4777 152.491 70.7832C152.82 71.0867 153.076 71.4572 153.257 71.8949C153.439 72.3346 153.53 72.8383 153.53 73.406C153.53 73.7157 153.501 74.0223 153.444 74.3257C153.386 74.6313 153.294 74.9254 153.165 75.2083C153.035 75.4932 152.87 75.7564 152.669 75.9979C152.468 76.2415 152.224 76.4459 151.937 76.611C152.32 77.2613 152.736 77.9808 153.185 78.7694C153.635 79.56 154.089 80.3321 154.548 81.0856H152.669C152.478 80.7657 152.28 80.4302 152.075 80.0792C151.869 79.7283 151.663 79.3794 151.458 79.0326C151.252 78.6878 151.051 78.3472 150.856 78.0107C150.659 77.6763 150.474 77.3645 150.302 77.0755H150.015H148.552V81.0856ZM148.552 71.4397V75.4808H149.972C150.355 75.4808 150.675 75.4106 150.933 75.2702C151.191 75.1319 151.395 74.9595 151.544 74.7531C151.692 74.5466 151.797 74.3247 151.86 74.0873C151.921 73.8499 151.952 73.6331 151.952 73.437C151.952 73.2409 151.921 73.0262 151.86 72.7929C151.797 72.5617 151.689 72.3449 151.536 72.1426C151.383 71.9424 151.18 71.7752 150.927 71.641C150.673 71.5068 150.359 71.4397 149.986 71.4397H148.552ZM163.543 69.8604H165.107V81.5966C164.973 81.4108 164.715 81.1114 164.332 80.6986C163.949 80.2857 163.51 79.8109 163.012 79.2741C162.515 78.7374 161.987 78.1748 161.428 77.5865C160.868 76.9981 160.339 76.4376 159.842 75.905C159.345 75.3745 158.909 74.8996 158.536 74.4806C158.163 74.0635 157.915 73.7673 157.79 73.5918L157.518 73.1893L157.561 73.6847V81.0856H155.983V69.334C156.088 69.4785 156.263 69.6849 156.508 69.9533C156.751 70.2217 157.038 70.5334 157.369 70.8885C157.698 71.2456 158.061 71.6306 158.459 72.0435C158.855 72.4564 159.257 72.8744 159.664 73.2977C160.069 73.7209 160.471 74.1358 160.869 74.5425C161.265 74.9512 161.628 75.3311 161.959 75.682C162.288 76.033 162.572 76.3427 162.811 76.611C163.05 76.8794 163.218 77.0807 163.313 77.2149L163.586 77.6484L163.543 77.122V69.8604ZM175.651 81.0856H174.101C174.054 80.9721 173.987 80.8069 173.901 80.5902C173.814 80.3734 173.716 80.1226 173.605 79.8377C173.496 79.5549 173.376 79.2452 173.246 78.9087C173.118 78.5743 172.987 78.2264 172.853 77.8652H169.181L167.947 81.0856H166.398L171.031 69.334C171.089 69.4785 171.191 69.7417 171.338 70.1236C171.488 70.5055 171.665 70.9618 171.869 71.4923C172.076 72.0249 172.305 72.6133 172.558 73.2574C172.812 73.9036 173.07 74.5569 173.332 75.2176C173.596 75.8782 173.855 76.5285 174.107 77.1684C174.362 77.8084 174.594 78.3967 174.804 78.9335C175.015 79.4702 175.194 79.9265 175.341 80.3022C175.49 80.68 175.593 80.9411 175.651 81.0856ZM170.874 73.437L169.726 76.4407H172.323C172.189 76.1001 172.061 75.7718 171.941 75.456C171.822 75.1422 171.712 74.8532 171.611 74.5889C171.512 74.3268 171.424 74.0976 171.347 73.9015C171.271 73.7054 171.213 73.5505 171.175 73.437C171.165 73.4164 171.143 73.3441 171.109 73.2202C171.076 73.0964 171.051 72.9828 171.031 72.8796C171.012 72.9828 170.984 73.0964 170.945 73.2202C170.907 73.3441 170.883 73.4164 170.874 73.437ZM183.684 81.0856H176.942V69.8604H178.52V79.4754H183.684V81.0856ZM191.084 70.4797L190.524 71.8577C190.132 71.7029 189.743 71.579 189.356 71.4861C188.968 71.3932 188.597 71.3468 188.243 71.3468C187.641 71.3468 187.161 71.481 186.803 71.7493C186.443 72.0177 186.264 72.3583 186.264 72.7712C186.264 73.1222 186.393 73.4029 186.651 73.6135C186.909 73.8261 187.23 74.0171 187.612 74.1864C187.995 74.3577 188.411 74.528 188.86 74.6973C189.31 74.8687 189.726 75.0885 190.108 75.3569C190.491 75.6253 190.811 75.9628 191.069 76.3695C191.328 76.7783 191.457 77.3026 191.457 77.9426C191.457 78.438 191.373 78.884 191.207 79.2803C191.039 79.6787 190.79 80.0225 190.461 80.3115C190.13 80.6005 189.719 80.8224 189.227 80.9773C188.734 81.1321 188.157 81.2095 187.497 81.2095C187.076 81.2095 186.697 81.1785 186.358 81.1166C186.018 81.0547 185.712 80.9742 185.44 80.8751C185.167 80.778 184.928 80.6728 184.723 80.5592C184.516 80.4457 184.341 80.3425 184.198 80.2496L184.886 78.7787C185.269 79.0161 185.695 79.207 186.163 79.3515C186.632 79.496 187.057 79.5683 187.44 79.5683C187.631 79.5683 187.868 79.5425 188.151 79.4909C188.433 79.4393 188.702 79.3484 188.961 79.2184C189.219 79.0904 189.442 78.918 189.629 78.7012C189.815 78.4845 189.907 78.211 189.907 77.8806C189.907 77.5813 189.834 77.3253 189.686 77.1127C189.537 76.9021 189.341 76.7163 189.098 76.5553C188.853 76.3963 188.576 76.2518 188.266 76.1218C187.954 75.9938 187.636 75.8606 187.311 75.7223C186.986 75.5819 186.668 75.4343 186.358 75.2795C186.046 75.1247 185.769 74.9358 185.526 74.7128C185.281 74.4919 185.085 74.2339 184.938 73.9387C184.789 73.6455 184.714 73.2925 184.714 72.8796C184.714 72.4977 184.786 72.1209 184.929 71.7493C185.073 71.3778 185.288 71.0474 185.575 70.7584C185.862 70.4694 186.219 70.2372 186.645 70.0617C187.07 69.8862 187.564 69.7985 188.129 69.7985C188.473 69.7985 188.81 69.8294 189.141 69.8914C189.47 69.9533 189.769 70.0225 190.036 70.0988C190.304 70.1773 190.532 70.2526 190.719 70.3249C190.905 70.3972 191.026 70.4488 191.084 70.4797Z" fill="#304C61"/>
</g>
</g>
</g>
</g>
<g clip-path="url(#clip8_63_222)">
<g clip-path="url(#clip9_63_222)">
<g clip-path="url(#clip10_63_222)">
<g clip-path="url(#clip11_63_222)">
<path d="M56.6572 58.0573V60.3244H78.1119V58.0573H56.6572ZM60.7388 84.1832H74.0258V63.8908H60.7388V84.1832ZM58.0231 87.7561H76.7431V60.7993H58.0231V87.7561ZM60.2813 63.3976H74.4788V84.6732H60.2813V63.3976Z" fill="#A82700"/>
<path d="M72.4087 49.8695H71.0764C70.8546 49.8695 70.6714 50.0635 70.6714 50.3033V51.4129C70.6714 51.5474 70.7295 51.6835 70.8136 51.8034V57.731H72.6705V52.7002C72.7501 52.6618 72.8071 52.5802 72.8071 52.4457V50.3033C72.8086 50.0635 72.6314 49.8695 72.4087 49.8695ZM71.742 49.6464C72.1329 49.6464 72.1329 48.9609 71.9462 48.4575C71.7606 47.9589 71.742 47.4749 71.742 47.4749C71.742 47.4749 71.7245 47.9589 71.5383 48.4575C71.3471 48.9609 71.3471 49.6464 71.742 49.6464Z" fill="#A82700"/>
<path d="M51.9189 46.3388C54.2442 44.7901 54.9615 41.5019 53.5225 38.9878C52.079 36.4878 49.0344 35.7089 46.7091 37.2646C44.3817 38.8204 43.6665 42.1112 45.1055 44.6183C46.5429 47.1248 49.594 47.9016 51.9189 46.3388Z" fill="#A82700"/>
<path d="M61.1933 55.9078L61.9225 55.8306L61.7093 52.3123L60.7158 52.3069C60.856 51.3324 60.8745 49.8404 60.1012 48.3905C59.91 48.0334 59.7103 47.7195 59.5121 47.4268L59.1057 48.5126L59.2423 47.0529C58.1892 45.6436 57.1882 45.0056 57.0401 44.1813C57.0401 44.1813 57.1317 45.4421 57.4595 46.7558L58.392 47.3646L57.5796 47.1923C57.6932 47.578 57.8234 47.9589 57.9865 48.2997C58.5706 49.5216 58.5116 51.0688 59.3289 52.2993L53.0355 52.2664L46.4934 47.9902C46.2336 47.7746 45.9538 47.5829 45.6475 47.4365L45.5229 47.3555L45.5049 47.3868C45.2982 47.2955 45.0874 47.2118 44.8607 47.1567C42.6019 46.6176 40.3611 48.1512 39.8681 50.5891L36.9812 64.6595C36.6799 66.1364 37.0843 67.602 37.9492 68.6823H36.5623L32.5517 49.0668C32.2764 47.7466 31.0617 46.8974 29.8405 47.1896C28.6102 47.4846 27.8419 48.7891 28.1172 50.1099L28.1102 50.1007L32.5187 71.5972C32.6473 72.2293 33.0072 72.8273 33.4762 73.1735L31.1438 88.1293H33.5602L34.5663 81.1068H48.0815V88.1293H50.584V73.2254C50.584 73.1692 50.7147 73.1028 50.8068 73.0336L53.1722 86.3505L57.1427 85.699L55.1992 67.6938C55.0195 66.4141 54.0536 65.4314 52.8563 65.3115L45.5769 64.5531L47.7276 54.0787L51.4204 56.4896C51.7492 56.7051 52.1261 56.8202 52.513 56.8202C52.546 56.8202 52.5796 56.8202 52.6106 56.818L60.8414 55.9451L61.1052 57.0384C61.1678 57.2999 61.2814 57.4917 61.3695 57.463C61.4561 57.4339 61.4786 57.2043 61.419 56.9428L61.1933 55.9078ZM48.0815 78.946H34.9346L35.7254 73.5441H48.0815V78.946Z" fill="#A82700"/>
<path d="M69.4557 55.1499H69.4456C69.2279 55.1499 69.0733 54.9797 69.0192 54.7663C69.0467 54.7399 69.0943 54.7301 69.0943 54.6875C69.0943 54.6178 69.0367 54.5794 68.9792 54.5627V54.5173C69.0367 54.5027 69.0943 54.4644 69.0943 54.3974C69.0943 54.3304 69.0367 54.2942 68.9792 54.2775L68.9842 54.1289H67.5362V54.2704C67.4741 54.2845 67.4166 54.3255 67.4166 54.3974C67.4166 54.4671 67.4741 54.5076 67.5362 54.5222V54.5605C67.4741 54.5751 67.4166 54.6156 67.4166 54.6875C67.4166 54.7328 67.4656 54.7447 67.4962 54.7712C67.4431 54.9819 67.2784 55.1499 67.0612 55.1499H67.0517C66.7935 55.1499 66.5812 55.38 66.5812 55.6604V57.1221C66.5812 57.4003 66.795 57.6304 67.0517 57.6304H69.4552C69.7164 57.6304 69.9296 57.4003 69.9296 57.1221V55.6598C69.9306 55.38 69.7179 55.1499 69.4557 55.1499ZM69.278 56.9233H67.2304V55.7824H69.278V56.9233Z" fill="#A82700"/>
</g>
</g>
<path d="M13.8194 76.9536L13.4815 75.9475L14.3229 75.6184L15.6599 79.5967C16.159 81.0824 16.1594 82.4288 15.6612 83.6365C15.1612 84.8484 14.0093 85.8071 12.2058 86.5131C10.4218 87.2116 8.98058 87.4198 7.88249 87.1376C6.9234 86.8914 6.14675 86.2248 5.5521 85.1376C5.29626 84.6529 5.05214 84.065 4.82019 83.3735L3.62177 79.8072L4.46314 79.4781L4.80108 80.4837L13.8194 76.9536ZM14.7898 79.8419L14.1974 78.0787L5.17941 81.6089L5.63333 82.96C6.1246 84.4222 6.71187 85.3317 7.39556 85.6889C8.11097 86.0673 8.94018 86.1657 9.88233 85.9838C10.4348 85.8779 11.0573 85.6894 11.7497 85.4184C13.2795 84.8198 14.2655 84.0261 14.7073 83.0373C15.1464 82.05 15.1742 80.9849 14.7898 79.8419ZM20.6681 91.4464C19.964 90.3639 19.0332 89.7887 17.876 89.7216C16.7189 89.6541 15.4401 90.1515 14.0392 91.2129C13.4363 91.67 12.9524 92.1365 12.5867 92.6133C12.2227 93.0929 11.9795 93.5251 11.8561 93.91C11.7358 94.293 11.6976 94.6831 11.7419 95.0792C11.8031 95.7201 12.0329 96.3464 12.4312 96.9582C13.0484 97.9071 13.7625 98.7805 14.5735 99.5784L13.9932 100.277C13.8355 100.155 13.4845 99.7744 12.9403 99.1349C12.3986 98.4936 11.9847 97.953 11.6984 97.5133C11.4126 97.074 11.1919 96.669 11.0364 96.2991C10.8835 95.9273 10.7823 95.4899 10.732 94.9864C10.6803 94.4805 10.725 93.9859 10.8657 93.5031C11.0078 93.0155 11.2879 92.4843 11.7071 91.9096C12.1289 91.3329 12.6944 90.7755 13.4042 90.2373C14.974 89.0475 16.4513 88.5074 17.8356 88.6181C19.286 88.7315 20.4696 89.4929 21.3866 90.9016C21.6659 91.3311 21.9313 91.8266 22.1832 92.3882C22.4356 92.9457 22.5946 93.3568 22.6602 93.6221L20.858 95.247L20.3059 94.6118L21.6116 93.3226C21.3375 92.6166 21.023 91.9912 20.6681 91.4464ZM28.3057 99.6881L27.6341 99.0777L28.211 98.3389L30.6252 100.534L30.0488 101.273L29.2504 100.547L23.8564 101.928L23.641 108.985L24.5892 109.847L24.0124 110.586L23.6119 110.222L22.6454 109.368L22.8847 101.162L28.3057 99.6881ZM26.6659 98.1973L25.8076 97.4167L19.627 105.335L20.4853 106.115L19.9084 106.854L17.3939 104.568L17.9707 103.829L18.7786 104.564L24.9593 96.6455L24.1514 95.9109L24.7282 95.172L27.2428 97.4584L26.6659 98.1973ZM37.9738 117.821L34.9619 116.398L35.3207 115.513L36.2329 115.944L36.3923 113.53L31.8041 111.362L30.2886 113.136L31.3606 113.643L31.0018 114.528L27.9899 113.105L28.3487 112.22L29.3329 112.684L37.0104 103.955L37.9182 104.384L37.3049 116.451L38.3326 116.936L37.9738 117.821ZM36.4496 112.6L36.9188 105.368L32.3857 110.68L36.4496 112.6ZM45.2986 108.033L44.2887 107.866L44.4242 106.912L47.765 107.463C49.0828 107.681 50.0267 108.085 50.5966 108.675C51.1665 109.268 51.3555 110.238 51.1643 111.586C50.9732 112.934 50.5028 113.873 49.7535 114.405C49.0033 114.939 47.9895 115.1 46.7116 114.889L45.4776 114.685L44.9437 118.449L46.0831 118.637L45.9476 119.592L42.702 119.056L42.8375 118.101L43.8474 118.268L45.2986 108.033ZM47.5517 108.406L46.395 108.214L45.6127 113.73L46.7694 113.921C47.7337 114.08 48.4865 113.971 49.029 113.593C49.5685 113.215 49.9116 112.509 50.0584 111.475C50.2052 110.438 50.0676 109.708 49.6445 109.285C49.2249 108.86 48.5273 108.566 47.5517 108.406ZM61.9736 107.879L60.985 108.158L60.7587 107.223L64.0282 106.3C65.3178 105.935 66.3329 105.902 67.0731 106.2C67.8137 106.5 68.3441 107.31 68.6642 108.629C68.9839 109.948 68.8975 111.012 68.4044 111.82C67.9119 112.631 67.0405 113.214 65.7904 113.567L64.582 113.909L65.4755 117.592L66.5905 117.277L66.8173 118.212L63.6407 119.109L63.414 118.174L64.4026 117.895L61.9736 107.879ZM64.1785 107.256L63.0465 107.576L64.3557 112.974L65.4877 112.654C66.4311 112.388 67.0822 111.965 67.4414 111.386C67.7976 110.808 67.8532 110.013 67.6078 109.001C67.3615 107.986 66.9667 107.375 66.4229 107.167C65.8816 106.957 65.1332 106.987 64.1785 107.256ZM84.0465 109.389L81.2001 111.166L80.7523 110.329L81.614 109.791L79.9057 108.222L75.5702 110.929L75.9972 113.297L77.0102 112.665L77.4584 113.501L74.612 115.278L74.1642 114.442L75.0937 113.861L73.1234 102.014L73.9813 101.479L82.627 109.159L83.5982 108.552L84.0465 109.389ZM79.2459 107.622L74.1238 102.93L75.4056 110.019L79.2459 107.622ZM81.0472 97.2578L80.3335 98.0271L79.7011 97.3436L82.028 94.8364L82.6604 95.5199L81.8291 96.4158L88.6065 103.743L91.5298 100.593L90.2684 98.856L90.8896 98.307L92.1419 99.9342L92.151 99.9244L92.1666 99.9609L92.7278 100.668L92.601 100.778L92.6136 100.791L87.7434 106.038L87.111 105.355L87.8247 104.585L81.0472 97.2578ZM87.3477 89.3977L86.8191 90.3245L86.0568 89.8182L87.7803 86.7963L88.5427 87.3026L87.9267 88.3822L96.0963 93.8092L98.2617 90.0128L96.6606 88.6392L97.1466 87.9491L98.7147 89.2181L98.7217 89.206L98.7447 89.2378L99.4427 89.7845L99.3433 89.9232L99.358 89.9331L95.751 96.2583L94.9887 95.7515L95.5173 94.8246L87.3477 89.3977ZM91.969 79.8583L91.5915 80.9436L90.7536 80.6037L91.9095 77.2818L92.7478 77.6216L92.3577 78.7421L101.338 82.3829L101.728 81.2624L102.566 81.6018L101.41 84.9238L100.572 84.5844L100.95 83.4991L91.969 79.8583Z" fill="#A82700"/>
<path d="M1.74353 46.516L1.40559 47.5216L0.563782 47.192L1.90077 43.2137C2.39899 41.7308 3.19867 40.6971 4.29936 40.112C5.40309 39.5279 6.85649 39.5893 8.65956 40.2948C10.4439 40.9934 11.6736 41.8307 12.3491 42.8067C12.939 43.6595 13.1388 44.7087 12.9494 45.9543C12.8577 46.5033 12.6957 47.1235 12.4638 47.8146L11.2649 51.3813L10.4235 51.0517L10.7615 50.0461L1.74353 46.516ZM2.71391 43.6272L2.12143 45.3904L11.1398 48.9205L11.5937 47.5694C12.085 46.1076 12.1745 45.0026 11.8622 44.2558C11.5377 43.4701 10.96 42.8213 10.129 42.3089C9.64166 42.0079 9.05179 41.7219 8.35941 41.4509C6.82999 40.8518 5.60203 40.7791 4.67552 41.232C3.75205 41.6858 3.09833 42.4842 2.71391 43.6272ZM10.1273 28.7607C9.42318 29.8432 9.23814 30.9828 9.57217 32.1807C9.9062 33.3785 10.7736 34.5078 12.1745 35.5697C12.7795 36.0282 13.3503 36.3615 13.8876 36.5692C14.4275 36.7783 14.8867 36.8786 15.2654 36.8706C15.6403 36.8627 15.993 36.7694 16.3236 36.5894C16.8609 36.3099 17.3291 35.8641 17.727 35.2523C18.3443 34.3034 18.8633 33.2819 19.2834 32.1877L20.0895 32.5398C20.0366 32.7414 19.8237 33.227 19.4515 33.9964C19.0762 34.7643 18.7456 35.3676 18.4598 35.8074C18.1735 36.2471 17.8955 36.6086 17.6262 36.8917C17.3539 37.173 17.0073 37.4248 16.5855 37.6465C16.162 37.8706 15.7159 37.993 15.2472 38.0141C14.7742 38.0356 14.216 37.9311 13.5727 37.7009C12.9272 37.4688 12.2492 37.0835 11.5394 36.5453C9.96961 35.3554 8.99749 34.039 8.62394 32.5965C8.2304 31.085 8.49232 29.6252 9.40928 28.2164C9.68858 27.787 10.0304 27.3491 10.4344 26.9028C10.8344 26.4574 11.1389 26.1564 11.3474 25.9998L13.3755 27.2778L13.0128 28.057L11.4426 27.1658C10.9204 27.6838 10.4822 28.2155 10.1273 28.7607ZM20.0287 17.9054L19.3576 18.5153L18.7808 17.7769L21.192 15.5843L21.7684 16.3231L20.9739 17.046L21.3188 23.0177L27.7258 24.4448L28.6709 23.5855L29.2478 24.3243L28.8503 24.6853L27.9065 25.5685L20.454 23.9211L20.0287 17.9054ZM18.386 19.399L17.5311 20.1763L23.7122 28.0945L24.567 27.3172L25.1439 28.0561L22.6323 30.3396L22.0559 29.6008L22.8639 28.8657L16.6828 20.9479L15.8749 21.6826L15.298 20.9437L17.8091 18.6601L18.386 19.399ZM41.2342 18.414L38.2223 19.8369L37.8631 18.9517L38.7752 18.5209L37.2397 16.7563L32.6519 18.9241L32.8313 21.3291L33.9034 20.8228L34.2621 21.7079L31.2502 23.1307L30.891 22.2456L31.8753 21.7805L31.1416 9.77054L32.0495 9.34158L39.8473 18.0146L40.8754 17.5289L41.2342 18.414ZM36.646 16.0803L32.0412 10.8015L32.582 18.0001L36.646 16.0803ZM43.3552 6.45839L42.3453 6.62529L42.2098 5.67032L45.5505 5.11853C46.8684 4.90053 47.8814 4.98304 48.5894 5.36512C49.2965 5.74392 49.7461 6.60747 49.9372 7.95531C50.1284 9.30314 49.9381 10.3514 49.3673 11.1006C48.7996 11.8521 47.8783 12.3335 46.6034 12.544L45.369 12.748L45.9028 16.512L47.0422 16.3236L47.1777 17.2786L43.9321 17.8149L43.7966 16.8599L44.8065 16.693L43.3552 6.45839ZM45.6083 6.08616L44.4516 6.27743L45.2334 11.793L46.3902 11.6017C47.3545 11.4428 48.0425 11.0954 48.4556 10.56C48.8656 10.0251 48.9973 9.24032 48.8509 8.20612C48.7036 7.16911 48.3696 6.51699 47.8488 6.25024C47.3306 5.97974 46.5839 5.92535 45.6083 6.08616ZM65.2262 6.90517L64.2375 6.62576L64.4643 5.69142L67.7338 6.61497C69.0234 6.97924 69.923 7.4879 70.4325 8.14189C70.9429 8.7926 71.038 9.77758 70.7183 11.0968C70.3982 12.4156 69.8387 13.2969 69.039 13.74C68.2415 14.1872 67.219 14.2346 65.9715 13.882L64.7636 13.5407L63.8701 17.2246L64.9855 17.5397L64.7588 18.474L61.5822 17.5767L61.809 16.6424L62.7972 16.9213L65.2262 6.90517ZM67.431 7.52775L66.299 7.20802L64.9903 12.6059L66.1223 12.9261C67.0657 13.1924 67.825 13.168 68.401 12.8534C68.9739 12.5379 69.3831 11.8741 69.6285 10.8619C69.8748 9.84696 69.8079 9.1053 69.4278 8.63743C69.0512 8.16721 68.3858 7.79732 67.431 7.52775ZM79.9756 26.404L77.1296 24.6272L77.5779 23.7913L78.4397 24.329L78.8475 21.9489L74.5121 19.2424L72.8228 20.8228L73.8358 21.4552L73.3875 22.2916L70.5415 20.5148L70.9898 19.6784L71.9194 20.2588L80.4517 12.5079L81.3095 13.0438L79.4526 24.9614L80.4239 25.5676L79.9756 26.404ZM79.0009 21.0319L80.2145 13.9008L75.1606 18.6348L79.0009 21.0319ZM90.1229 21.1266L89.4088 20.3572L90.0412 19.6737L92.3651 22.1776L91.7327 22.8612L90.9048 21.969L84.1273 29.2965L87.0506 32.446L88.6582 31.0818L89.1682 31.7508L87.6622 33.1052L87.6718 33.1155L87.6379 33.1319L86.9837 33.739L86.8816 33.6026L86.869 33.6157L81.9989 28.3688L82.6313 27.6848L83.3454 28.4541L90.1229 21.1266ZM98.2873 31.5318L97.7587 30.605L98.521 30.0982L100.242 33.1164L99.4801 33.6227L98.8668 32.5473L90.6967 37.9742L92.862 41.7711L94.7194 40.8471L95.0712 41.6258L93.3151 42.5658L93.322 42.5775L93.2855 42.5855L92.5184 43.0116L92.449 42.8536L92.4337 42.8635L88.8267 36.5383L89.5891 36.0319L90.1177 36.9588L98.2873 31.5318ZM103.994 43.4631L103.617 42.3778L104.455 42.0379L105.609 45.3557L104.772 45.6951L104.383 44.5793L95.4027 48.2201L95.791 49.3363L94.9531 49.6758L93.7985 46.3584L94.6364 46.0186L95.0143 47.1039L103.994 43.4631Z" fill="#A82700"/>
<path d="M1.26831 64.0983C1.26831 61.5062 3.21515 59.405 5.61678 59.405C8.0184 59.405 9.96524 61.5062 9.96524 64.0983C9.96524 66.6904 8.0184 68.7916 5.61678 68.7916C3.21515 68.7916 1.26831 66.6904 1.26831 64.0983ZM96.6175 64.0983C96.6175 61.5062 98.5643 59.405 100.966 59.405C103.368 59.405 105.314 61.5062 105.314 64.0983C105.314 66.6904 103.368 68.7916 100.966 68.7916C98.5643 68.7916 96.6175 66.6904 96.6175 64.0983Z" fill="#A82700"/>
</g>
</g>
</g>
</g>
<defs>
<clipPath id="clip0_63_222">
<rect width="290.428" height="114.592" fill="white" transform="translate(0 5)"/>
</clipPath>
<clipPath id="clip1_63_222">
<rect width="290.428" height="114.592" fill="white" transform="translate(0 5)"/>
</clipPath>
<clipPath id="clip2_63_222">
<rect width="171.802" height="42.2241" fill="white" transform="translate(118.627 41.1841)"/>
</clipPath>
<clipPath id="clip3_63_222">
<rect width="171.802" height="42.2241" fill="white" transform="translate(118.627 41.1841)"/>
</clipPath>
<clipPath id="clip4_63_222">
<rect width="171.802" height="22.7737" fill="white" transform="translate(118.627 41.1841)"/>
</clipPath>
<clipPath id="clip5_63_222">
<rect width="171.802" height="22.7737" fill="white" transform="translate(118.627 41.1841)"/>
</clipPath>
<clipPath id="clip6_63_222">
<rect width="72.8326" height="14.0741" fill="white" transform="translate(118.627 69.334)"/>
</clipPath>
<clipPath id="clip7_63_222">
<rect width="72.8326" height="14.0741" fill="white" transform="translate(118.627 69.334)"/>
</clipPath>
<clipPath id="clip8_63_222">
<rect width="106.173" height="114.592" fill="white" transform="translate(0 5)"/>
</clipPath>
<clipPath id="clip9_63_222">
<rect width="106.173" height="114.592" fill="white" transform="translate(0 5)"/>
</clipPath>
<clipPath id="clip10_63_222">
<rect width="50.0506" height="51.6666" fill="white" transform="translate(28.0613 36.4628)"/>
</clipPath>
<clipPath id="clip11_63_222">
<rect width="50.0506" height="51.6666" fill="white" transform="translate(28.0613 36.4628)"/>
</clipPath>
</defs>
</svg>
