<svg width="91" height="90" viewBox="0 0 91 90" fill="none" xmlns="http://www.w3.org/2000/svg">
<g clip-path="url(#clip0_274_555)">
<g clip-path="url(#clip1_274_555)">
<path d="M48.0266 41.6709V43.4515H66.2132V41.6709H48.0266ZM51.4865 62.1901H62.7495V46.2525H51.4865V62.1901ZM49.1845 64.9962H65.0528V43.8245H49.1845V64.9962ZM51.0987 45.8652H63.1335V62.5749H51.0987V45.8652Z" fill="#A82700"/>
<path d="M61.3787 35.2403H60.2493C60.0614 35.2403 59.9061 35.3926 59.9061 35.581V36.4524C59.9061 36.558 59.9553 36.665 60.0266 36.7591V41.4146H61.6006V37.4634C61.6681 37.4333 61.7164 37.3692 61.7164 37.2636V35.581C61.7177 35.3926 61.5675 35.2403 61.3787 35.2403ZM60.8136 35.065C61.1449 35.065 61.1449 34.5267 60.9867 34.1312C60.8293 33.7396 60.8136 33.3595 60.8136 33.3595C60.8136 33.3595 60.7987 33.7396 60.6409 34.1312C60.4788 34.5267 60.4788 35.065 60.8136 35.065Z" fill="#A82700"/>
<path d="M44.0101 32.4673C45.9813 31.2509 46.5892 28.6684 45.3695 26.6939C44.1459 24.7304 41.5651 24.1186 39.5939 25.3405C37.6211 26.5623 37.0148 29.147 38.2346 31.116C39.4531 33.0846 42.0394 33.6947 44.0101 32.4673Z" fill="#A82700"/>
<path d="M51.8718 39.9827L52.4899 39.922L52.3092 37.1588L51.467 37.1545C51.5858 36.3891 51.6015 35.2173 50.946 34.0786C50.7839 33.7981 50.6147 33.5516 50.4467 33.3217L50.1021 34.1745L50.218 33.0281C49.3253 31.9212 48.4768 31.4201 48.3512 30.7727C48.3512 30.7727 48.4288 31.7629 48.7067 32.7948L49.4971 33.2729L48.8086 33.1376C48.9049 33.4405 49.0152 33.7396 49.1535 34.0073C49.6486 34.967 49.5985 36.1821 50.2914 37.1486L44.9567 37.1227L39.4111 33.7642C39.1909 33.5949 38.9537 33.4443 38.6941 33.3293L38.5884 33.2657L38.5732 33.2903C38.3979 33.2186 38.2193 33.1528 38.0271 33.1096C36.1124 32.6861 34.213 33.8906 33.7951 35.8053L31.3479 46.8562C31.0925 48.0161 31.4353 49.1672 32.1684 50.0157H30.9928L27.5932 34.6098C27.3598 33.5729 26.3301 32.9059 25.2949 33.1354C24.2521 33.3671 23.6008 34.3917 23.8342 35.429L23.8282 35.4218L27.5652 52.305C27.6742 52.8014 27.9792 53.2711 28.3768 53.543L26.3997 65.2893H28.4481L29.3008 59.7738H40.7573V65.2893H42.8786V53.5838C42.8786 53.5396 42.9893 53.4875 43.0674 53.4332L45.0725 63.8922L48.4382 63.3805L46.7908 49.2393C46.6384 48.2342 45.8196 47.4625 44.8048 47.3683L38.6342 46.7726L40.4573 38.5461L43.5876 40.4396C43.8663 40.6089 44.1858 40.6992 44.5137 40.6992C44.5417 40.6992 44.5702 40.6992 44.5965 40.6975L51.5735 40.0119L51.7971 40.8707C51.8501 41.076 51.9464 41.2266 52.0211 41.2041C52.0945 41.1812 52.1136 41.0009 52.0631 40.7956L51.8718 39.9827ZM40.7573 58.0767H29.6131L30.2834 53.8341H40.7573V58.0767Z" fill="#A82700"/>
<path d="M58.8755 39.3874H58.8671C58.6825 39.3874 58.5514 39.2538 58.5056 39.0862C58.5289 39.0654 58.5692 39.0578 58.5692 39.0243C58.5692 38.9695 58.5204 38.9394 58.4716 38.9263V38.8906C58.5204 38.8792 58.5692 38.849 58.5692 38.7964C58.5692 38.7438 58.5204 38.7154 58.4716 38.7022L58.4759 38.5856H57.2485V38.6967C57.1959 38.7078 57.1471 38.74 57.1471 38.7964C57.1471 38.8512 57.1959 38.883 57.2485 38.8944V38.9246C57.1959 38.936 57.1471 38.9678 57.1471 39.0243C57.1471 39.0599 57.1887 39.0692 57.2145 39.09C57.1696 39.2555 57.03 39.3874 56.8459 39.3874H56.8378C56.6189 39.3874 56.439 39.5682 56.439 39.7884V40.9364C56.439 41.1549 56.6201 41.3357 56.8378 41.3357H58.8751C59.0966 41.3357 59.2773 41.1549 59.2773 40.9364V39.7879C59.2782 39.5682 59.0979 39.3874 58.8755 39.3874ZM58.7249 40.7803H56.9893V39.8842H58.7249V40.7803Z" fill="#A82700"/>
</g>
</g>
<path d="M11.835 56.5119L11.5454 55.7217L12.2663 55.4633L13.4118 58.5878C13.8394 59.7546 13.8398 60.8121 13.4129 61.7606C12.9846 62.7124 11.9976 63.4654 10.4524 64.0199C8.92398 64.5685 7.68917 64.732 6.74836 64.5103C5.92665 64.317 5.26123 63.7935 4.75175 62.9396C4.53256 62.5589 4.32341 62.0971 4.12467 61.554L3.0979 58.7531L3.81876 58.4947L4.1083 59.2845L11.835 56.5119ZM12.6664 58.7804L12.1587 57.3956L4.43245 60.1681L4.82135 61.2293C5.24225 62.3777 5.74541 63.092 6.33118 63.3726C6.94412 63.6697 7.65456 63.7471 8.46176 63.6042C8.93514 63.521 9.46844 63.373 10.0617 63.1601C11.3724 62.69 12.2172 62.0666 12.5957 61.29C12.9719 60.5146 12.9957 59.6781 12.6664 58.7804ZM17.7027 67.8945C17.0995 67.0443 16.3019 66.5925 15.3105 66.5399C14.3191 66.4868 13.2235 66.8775 12.0233 67.7111C11.5067 68.0701 11.0922 68.4365 10.7788 68.8109C10.4669 69.1876 10.2585 69.5271 10.1528 69.8294C10.0497 70.1302 10.017 70.4365 10.055 70.7477C10.1074 71.251 10.3043 71.7429 10.6456 72.2234C11.1744 72.9687 11.7862 73.6546 12.481 74.2813L11.9838 74.8303C11.8487 74.7342 11.548 74.4352 11.0817 73.933C10.6177 73.4293 10.263 73.0047 10.0177 72.6594C9.77286 72.3144 9.58381 71.9962 9.45058 71.7057C9.31958 71.4137 9.23287 71.0702 9.1897 70.6748C9.14541 70.2775 9.18374 69.889 9.30432 69.5098C9.42602 69.1268 9.66606 68.7097 10.0252 68.2583C10.3865 67.8054 10.8711 67.3676 11.4792 66.9449C12.8242 66.0104 14.0899 65.5862 15.2759 65.6731C16.5185 65.7622 17.5327 66.3602 18.3183 67.4666C18.5576 67.8039 18.785 68.1931 19.0008 68.6342C19.217 69.072 19.3532 69.3949 19.4094 69.6033L17.8654 70.8795L17.3924 70.3806L18.5111 69.368C18.2762 68.8135 18.0068 68.3223 17.7027 67.8945ZM24.2463 74.3675L23.671 73.8881L24.1652 73.3078L26.2336 75.0321L25.7398 75.6124L25.0558 75.0424L20.4343 76.1267L20.2498 81.6689L21.0622 82.3464L20.568 82.9267L20.2248 82.6406L19.3968 81.9697L19.6018 75.5247L24.2463 74.3675ZM22.8414 73.1966L22.1061 72.5835L16.8107 78.8025L17.5461 79.4155L17.0518 79.9958L14.8974 78.2001L15.3917 77.6198L16.0839 78.1968L21.3792 71.9778L20.687 71.4009L21.1813 70.8206L23.3357 72.6163L22.8414 73.1966ZM32.5297 88.6091L29.9492 87.4916L30.2566 86.7965L31.0382 87.1348L31.1747 85.2386L27.2437 83.5364L25.9452 84.9297L26.8637 85.3273L26.5563 86.0225L23.9758 84.9047L24.2832 84.2099L25.1265 84.5747L31.7043 77.7185L32.4821 78.0554L31.9566 87.5329L32.8371 87.914L32.5297 88.6091ZM31.2239 84.5085L31.6258 78.8282L27.742 83.0007L31.2239 84.5085ZM38.8054 80.9218L37.9401 80.7907L38.0562 80.0407L40.9185 80.4741C42.0476 80.6449 42.8563 80.9623 43.3446 81.4255C43.8328 81.8913 43.9947 82.6535 43.831 83.712C43.6672 84.7706 43.2642 85.5085 42.6222 85.9257C41.9795 86.3451 41.1109 86.4717 40.016 86.306L38.9587 86.1459L38.5013 89.1021L39.4775 89.2498L39.3614 89.9998L36.5806 89.579L36.6968 88.8289L37.562 88.96L38.8054 80.9218ZM40.7358 81.2142L39.7447 81.0639L39.0745 85.3958L40.0655 85.5461C40.8917 85.6709 41.5366 85.5851 42.0014 85.2887C42.4637 84.9915 42.7577 84.437 42.8835 83.6248C43.0092 82.8103 42.8913 82.2367 42.5288 81.9049C42.1693 81.571 41.5716 81.3405 40.7358 81.2142ZM53.092 80.8003L52.245 81.0198L52.0511 80.2856L54.8523 79.5602C55.9572 79.2741 56.827 79.248 57.4611 79.4818C58.0956 79.7178 58.55 80.3537 58.8243 81.3898C59.0982 82.4259 59.0242 83.2614 58.6018 83.8962C58.1798 84.5331 57.4332 84.9904 56.3622 85.2681L55.3268 85.5361L56.0923 88.4291L57.0477 88.1816L57.2419 88.9158L54.5204 89.6206L54.3261 88.8864L55.1731 88.6673L53.092 80.8003ZM54.9811 80.3113L54.0113 80.5625L55.1329 84.8019L56.1028 84.5508C56.9111 84.3417 57.4689 84.0096 57.7767 83.5548C58.0819 83.1008 58.1295 82.4764 57.9192 81.6814C57.7082 80.8843 57.3699 80.4045 56.904 80.2417C56.4403 80.0764 55.7991 80.0996 54.9811 80.3113ZM72.0034 81.9863L69.5647 83.3818L69.181 82.7249L69.9194 82.3022L68.4557 81.0702L64.7412 83.1958L65.107 85.056L65.9749 84.5593L66.359 85.2161L63.9202 86.6116L63.5365 85.9548L64.333 85.4989L62.6449 76.1945L63.3799 75.774L70.7872 81.8055L71.6194 81.3294L72.0034 81.9863ZM67.8904 80.5985L63.5019 76.9139L64.6002 82.4815L67.8904 80.5985ZM69.4337 72.4587L68.8223 73.0629L68.2804 72.5261L70.274 70.5569L70.8159 71.0938L70.1036 71.7974L75.9103 77.5524L78.4149 75.0785L77.3342 73.7139L77.8664 73.2827L78.9393 74.5608L78.9471 74.553L78.9605 74.5818L79.4413 75.137L79.3326 75.2232L79.3434 75.2338L75.1708 79.3548L74.629 78.8179L75.2404 78.2137L69.4337 72.4587ZM74.8318 66.2854L74.3789 67.0134L73.7258 66.6157L75.2025 64.2423L75.8556 64.6399L75.3279 65.4879L82.3274 69.7502L84.1826 66.7685L82.8108 65.6897L83.2272 65.1477L84.5707 66.1444L84.5767 66.1348L84.5964 66.1599L85.1945 66.5892L85.1092 66.6982L85.1219 66.7059L82.0315 71.6737L81.3784 71.2757L81.8313 70.5477L74.8318 66.2854ZM78.7912 58.7933L78.4678 59.6457L77.7499 59.3787L78.7402 56.7696L79.4584 57.0366L79.1242 57.9166L86.8182 60.776L87.1524 59.896L87.8702 60.1626L86.8799 62.7717L86.1621 62.5051L86.4855 61.6527L78.7912 58.7933Z" fill="#A82700"/>
<path d="M1.48868 32.6064L1.19914 33.3962L0.477905 33.1373L1.6234 30.0128C2.05026 28.8481 2.73539 28.0362 3.67843 27.5767C4.62408 27.118 5.86931 27.1662 7.41412 27.7203C8.94293 28.269 9.9965 28.9266 10.5752 29.6932C11.0806 30.3629 11.2518 31.1869 11.0895 32.1653C11.011 32.5964 10.8722 33.0835 10.6735 33.6263L9.64631 36.4276L8.92544 36.1687L9.21498 35.3789L1.48868 32.6064ZM2.32007 30.3375L1.81245 31.7223L9.53913 34.4949L9.92803 33.4337C10.3489 32.2857 10.4256 31.4178 10.158 30.8313C9.88002 30.2142 9.38505 29.7046 8.67312 29.3021C8.25556 29.0657 7.75018 28.8411 7.15696 28.6283C5.84661 28.1578 4.79453 28.1007 4.00072 28.4564C3.20952 28.8128 2.64943 29.4398 2.32007 30.3375ZM8.67163 18.6615C8.06837 19.5116 7.90983 20.4067 8.19602 21.3475C8.48221 22.2883 9.2254 23.1753 10.4256 24.0092C10.944 24.3693 11.433 24.6311 11.8934 24.7942C12.356 24.9584 12.7493 25.0372 13.0738 25.031C13.395 25.0247 13.6972 24.9515 13.9804 24.8101C14.4408 24.5906 14.842 24.2405 15.1828 23.76C15.7117 23.0147 16.1564 22.2124 16.5163 21.353L17.207 21.6295C17.1616 21.7879 16.9792 22.1693 16.6603 22.7735C16.3388 23.3767 16.0556 23.8505 15.8107 24.1959C15.5654 24.5413 15.3272 24.8252 15.0965 25.0476C14.8632 25.2685 14.5662 25.4662 14.2048 25.6404C13.842 25.8164 13.4598 25.9125 13.0582 25.929C12.6529 25.946 12.1747 25.8639 11.6236 25.6831C11.0705 25.5008 10.4896 25.1982 9.88151 24.7755C8.53654 23.841 7.70366 22.807 7.38361 21.6741C7.04643 20.487 7.27084 19.3404 8.05646 18.234C8.29576 17.8967 8.58864 17.5528 8.93475 17.2023C9.2775 16.8525 9.53838 16.6161 9.71702 16.4931L11.4546 17.4968L11.1439 18.1088L9.79852 17.4088C9.35119 17.8157 8.97568 18.2332 8.67163 18.6615ZM17.1549 10.1358L16.5799 10.6148L16.0857 10.0349L18.1515 8.3128L18.6454 8.89308L17.9647 9.46085L18.2602 14.151L23.7495 15.2718L24.5593 14.5969L25.0535 15.1772L24.713 15.4607L23.9043 16.1544L17.5192 14.8605L17.1549 10.1358ZM15.7474 11.3089L15.015 11.9193L20.3108 18.1383L21.0432 17.5278L21.5374 18.1081L19.3856 19.9016L18.8917 19.3213L19.584 18.7439L14.2882 12.5254L13.596 13.1024L13.1018 12.5221L15.2532 10.7286L15.7474 11.3089ZM35.3231 10.5353L32.7426 11.6528L32.4348 10.9576L33.2163 10.6192L31.9008 9.2333L27.9701 10.9359L28.1238 12.8247L29.0423 12.4271L29.3497 13.1222L26.7691 14.2397L26.4614 13.5446L27.3047 13.1793L26.6761 3.74673L27.4539 3.40982L34.1348 10.2216L35.0157 9.8401L35.3231 10.5353ZM31.392 8.70235L27.4468 4.5564L27.9102 10.2101L31.392 8.70235ZM37.1403 1.14539L36.2751 1.27647L36.159 0.526439L39.0212 0.0930656C40.1503 -0.0781481 41.0182 -0.0133446 41.6248 0.28674C42.2307 0.584246 42.6159 1.26247 42.7796 2.32105C42.9433 3.37963 42.7803 4.20293 42.2913 4.79132C41.8049 5.38154 41.0156 5.75969 39.9233 5.92501L38.8657 6.08518L39.323 9.04147L40.2992 8.89345L40.4153 9.64348L37.6346 10.0647L37.5185 9.31467L38.3837 9.18359L37.1403 1.14539ZM39.0707 0.853033L38.0797 1.00326L38.7495 5.33515L39.7406 5.18492C40.5668 5.0601 41.1563 4.78727 41.5102 4.36678C41.8615 3.94666 41.9743 3.33029 41.8488 2.51804C41.7227 1.70358 41.4365 1.19141 40.9903 0.981904C40.5463 0.769452 39.9066 0.72674 39.0707 0.853033ZM55.8787 1.49628L55.0317 1.27683L55.2259 0.543008L58.0271 1.26836C59.1321 1.55446 59.9028 1.95396 60.3393 2.4676C60.7766 2.97866 60.8581 3.75225 60.5842 4.78837C60.3099 5.82412 59.8306 6.51634 59.1455 6.86429C58.4622 7.21556 57.5861 7.25274 56.5173 6.97586L55.4824 6.70781L54.7168 9.60113L55.6725 9.84856L55.4783 10.5824L52.7567 9.87765L52.951 9.14383L53.7976 9.36291L55.8787 1.49628ZM57.7678 1.98525L56.7979 1.73414L55.6766 5.97361L56.6465 6.22509C57.4548 6.43423 58.1053 6.41509 58.5988 6.16802C59.0896 5.92022 59.4402 5.39885 59.6505 4.6039C59.8615 3.80675 59.8042 3.22425 59.4785 2.85679C59.1559 2.48748 58.5858 2.19697 57.7678 1.98525ZM68.5156 16.8105L66.0772 15.415L66.4613 14.7585L67.1996 15.1809L67.5491 13.3115L63.8346 11.1859L62.3873 12.4271L63.2552 12.9238L62.8711 13.5807L60.4328 12.1852L60.8168 11.5283L61.6132 11.9841L68.9235 5.89666L69.6585 6.31751L68.0675 15.6776L68.8996 16.1536L68.5156 16.8105ZM67.6805 12.5913L68.7203 6.99058L64.3902 10.7087L67.6805 12.5913ZM77.2095 12.6657L76.5977 12.0615L77.1395 11.5246L79.1305 13.4912L78.5887 14.028L77.8794 13.3273L72.0726 19.0823L74.5772 21.5559L75.9546 20.4844L76.3915 21.0099L75.1012 22.0736L75.1094 22.0817L75.0804 22.0946L74.5199 22.5714L74.4325 22.4643L74.4217 22.4746L70.2491 18.3537L70.7909 17.8164L71.4028 18.4207L77.2095 12.6657ZM84.2045 20.8379L83.7516 20.11L84.4047 19.7119L85.8796 22.0824L85.2264 22.4801L84.701 21.6354L77.7011 25.8977L79.5563 28.8798L81.1476 28.1541L81.4491 28.7657L79.9444 29.5039L79.9504 29.5131L79.9191 29.5194L79.2619 29.8541L79.2024 29.73L79.1893 29.7377L76.099 24.7699L76.7521 24.3723L77.205 25.1002L84.2045 20.8379ZM89.0942 30.2086L88.7708 29.3562L89.4887 29.0893L90.4779 31.6951L89.76 31.9616L89.4273 31.0853L81.733 33.9448L82.0657 34.8215L81.3478 35.088L80.3587 32.4826L81.0765 32.2157L81.4003 33.0681L89.0942 30.2086Z" fill="#A82700"/>
<path d="M1.08148 46.4154C1.08148 44.3796 2.74948 42.7294 4.80712 42.7294C6.86476 42.7294 8.53276 44.3796 8.53276 46.4154C8.53276 48.4512 6.86476 50.1015 4.80712 50.1015C2.74948 50.1015 1.08148 48.4512 1.08148 46.4154ZM82.7739 46.4154C82.7739 44.3796 84.4419 42.7294 86.4995 42.7294C88.5572 42.7294 90.2252 44.3796 90.2252 46.4154C90.2252 48.4512 88.5572 50.1015 86.4995 50.1015C84.4419 50.1015 82.7739 48.4512 82.7739 46.4154Z" fill="#A82700"/>
<defs>
<clipPath id="clip0_274_555">
<rect width="42.4264" height="40.5786" fill="white" transform="translate(23.7868 24.7107)"/>
</clipPath>
<clipPath id="clip1_274_555">
<rect width="42.4264" height="40.5786" fill="white" transform="translate(23.7868 24.7107)"/>
</clipPath>
</defs>
</svg>
